<svg width="49" height="49" viewBox="0 0 49 49" fill="none" xmlns="http://www.w3.org/2000/svg">
<rect width="49" height="49" rx="24.5" fill="#356DA4"/>
<g clip-path="url(#clip0_306_449)">
<path d="M12.5 25.0952C12.7066 24.3831 13.3687 23.9764 14.0897 24.2061C14.153 22.5585 13.7925 20.9024 14.8003 19.4697C16.3394 17.2848 19.54 17.1563 21.2204 19.2548C22.3863 20.7128 22.0448 22.4679 22.0911 24.2061C22.6309 24.0207 23.2634 24.2398 23.5333 24.7518C23.7505 25.1605 23.7146 26.3509 23.683 26.8482C23.5333 29.2037 21.914 31.1653 19.7023 31.9027L19.7086 33.6894C20.6237 33.7673 21.2393 34.3847 21.2963 35.3054C21.33 35.8532 21.2267 36.2767 20.6869 36.5H15.4939C14.9394 36.2746 14.8424 35.8174 14.8846 35.259C14.95 34.3762 15.593 33.7463 16.4743 33.6936L16.4786 31.9027C14.5536 31.2495 13.0545 29.7178 12.6244 27.7036C12.5759 27.4739 12.5717 27.2295 12.5 27.0104V25.0931V25.0952ZM21.2478 21.3554C21.1508 20.4094 20.5731 19.5182 19.7656 19.0273C17.7626 17.8116 15.2093 19.0568 14.9331 21.3554H16.6409C16.7632 21.3554 16.9108 21.6609 16.8981 21.7958C16.8855 21.9306 16.6768 22.1497 16.5481 22.1497H14.8867V23.7384H16.5945C16.7063 23.7384 16.9002 24.0038 16.9002 24.1366C16.9002 24.2693 16.7063 24.5348 16.5945 24.5348H14.8867V26.1234H16.5945C16.7063 26.1234 16.9024 26.3889 16.9024 26.5216C16.9024 26.6375 16.7505 26.9198 16.643 26.9198H14.9352C15.2072 29.2164 17.7689 30.4616 19.7677 29.248C20.5752 28.7571 21.1529 27.8658 21.2499 26.9198H19.5421C19.4346 26.9198 19.2827 26.6375 19.2827 26.5216C19.2827 26.3889 19.4788 26.1234 19.5906 26.1234H21.2984V24.5348H19.5906C19.4788 24.5348 19.2849 24.2693 19.2849 24.1366C19.2849 24.0038 19.4788 23.7384 19.5906 23.7384H21.2984V22.1497H19.5906C19.4788 22.1497 19.2827 21.8843 19.2849 21.7515C19.2849 21.6356 19.4282 21.3533 19.5442 21.3533H21.252L21.2478 21.3554ZM13.5626 24.9646C13.3897 25.0025 13.3223 25.1479 13.2991 25.3101C12.928 27.9543 14.3343 30.6154 17.0373 31.1969C20.7017 31.9828 23.3077 28.8708 22.886 25.3523C22.8207 24.815 22.1628 24.8213 22.0933 25.2617C21.9794 25.9738 22.1565 26.667 21.9646 27.4718C20.9189 31.8711 14.3955 31.3254 14.0897 26.7576C14.0623 26.353 14.172 25.5145 14.0708 25.1879C14.0054 24.9793 13.7587 24.9224 13.5647 24.9667L13.5626 24.9646ZM18.9074 32.0607C18.3635 32.126 17.8132 32.126 17.2713 32.0607V33.6957H18.9074V32.0607ZM20.4993 35.7057C20.552 34.9999 20.3369 34.5448 19.5885 34.4879C18.7788 34.4268 17.3472 34.4184 16.5439 34.4879C15.8102 34.5511 15.6331 35.0315 15.6795 35.7057H20.4972H20.4993Z" fill="#EBF0F6"/>
<path d="M26.0655 22.944C24.8827 22.9398 23.8032 21.9959 23.6851 20.8118C23.4932 18.8945 23.8158 16.6886 23.6809 14.7418C23.8011 13.5914 24.7372 12.6559 25.901 12.5653C28.5935 12.3546 31.5558 12.7255 34.2756 12.5674C35.4268 12.6896 36.3566 13.6314 36.4536 14.786C36.3313 16.7097 36.6117 18.8229 36.4515 20.7233C36.3545 21.8779 35.4289 22.824 34.2714 22.9377C33.1139 23.0515 31.8742 22.8577 30.7314 22.9525L27.8682 25.5145C27.4381 25.801 26.9447 25.8053 26.5188 25.5061C25.7914 24.9962 26.1519 23.7068 26.0676 22.9419L26.0655 22.944ZM26.9658 24.8487C27.048 24.9267 27.3052 24.9372 27.4001 24.8635L30.4109 22.1708C31.6211 22.0465 32.979 22.2677 34.1723 22.1434C34.9904 22.0591 35.5723 21.4418 35.6524 20.6327C35.5386 18.7639 35.7979 16.7286 35.6524 14.8808C35.5871 14.0528 34.963 13.4271 34.1323 13.3617C31.5178 13.1553 28.6335 13.5219 25.9896 13.3617C25.1589 13.4271 24.5348 14.0486 24.4694 14.8808C24.3176 16.8129 24.5432 19.0062 24.5221 20.953C24.7035 21.6378 25.298 22.0802 25.9917 22.1497C26.2447 22.175 26.6559 22.057 26.8034 22.3204C26.951 22.5838 26.8034 24.1092 26.854 24.5601C26.8625 24.6317 26.9131 24.8066 26.9616 24.8508L26.9658 24.8487Z" fill="#EBF0F6"/>
<path d="M26.173 16.2756C26.211 16.2356 26.2827 16.2061 26.3333 16.1808L33.8286 16.1934C34.1323 16.4041 34.1365 16.7349 33.8181 16.9287L26.4619 16.9646C26.1203 16.9351 25.9348 16.539 26.173 16.2777V16.2756Z" fill="#EBF0F6"/>
<path d="M31.9437 18.6586C32.182 18.8777 32.0302 19.3222 31.7034 19.3475H26.4619C25.9369 19.2611 25.9369 18.6354 26.4619 18.549C28.1191 18.6649 29.9766 18.3994 31.6106 18.549C31.7202 18.5595 31.8636 18.5848 31.9437 18.6607V18.6586Z" fill="#EBF0F6"/>
</g>
<defs>
<clipPath id="clip0_306_449">
<rect width="24" height="24" fill="white" transform="translate(12.5 12.5)"/>
</clipPath>
</defs>
</svg>
