<svg width="49" height="49" viewBox="0 0 49 49" fill="none" xmlns="http://www.w3.org/2000/svg">
<rect width="49" height="49" rx="24.5" fill="#356DA4"/>
<g clip-path="url(#clip0_306_457)">
<path d="M36.5 27.2002C36.2597 28.1561 35.467 28.6092 34.4888 28.5306C34.5183 29.0044 34.1599 29.4741 33.7066 29.6231C33.3862 29.7265 31.9547 29.7162 31.5668 29.679C31.006 29.6231 30.6012 29.1782 30.5127 28.6465V22.1268C30.5843 21.684 30.8373 21.3219 31.2653 21.1564C30.7361 16.8609 26.233 14.1753 22.0819 15.7354C19.7523 16.6106 18.0784 18.7169 17.7874 21.1564C18.2154 21.3219 18.4684 21.684 18.5401 22.1268V28.6465C18.403 29.441 17.7326 29.7865 16.9484 29.679C16.9589 30.9887 16.7354 32.2405 17.7895 33.2378C18.7003 34.0985 19.8345 34.024 21.013 33.9889C21.1859 33.2005 21.8542 32.8509 22.63 32.7991C23.6905 32.7267 25.2632 32.7371 26.33 32.7991C28.7755 32.9398 28.5605 35.7683 26.6504 35.9628C25.3138 35.8986 23.8612 36.0683 22.5394 35.9711C22.0081 35.9317 21.5295 35.729 21.226 35.2862C21.11 35.1186 21.0657 34.9365 20.9456 34.7813C19.571 34.8248 18.3672 34.8103 17.3025 33.8585C16.8261 33.4323 16.1578 32.3584 16.1578 31.7232V29.681H15.4789C15.4136 29.681 15.0931 29.4969 15.0193 29.4431C14.7326 29.2341 14.5471 28.8886 14.5682 28.5327C13.5246 28.6154 12.6349 28.0754 12.5548 26.9974C12.4895 26.1077 12.4832 24.62 12.5548 23.7345C12.6371 22.6978 13.5499 22.1185 14.5682 22.2447C14.5387 21.7399 14.9118 21.266 15.403 21.1378C15.7193 17.4899 18.3904 14.3718 21.9533 13.36C27.4958 11.7875 33.1163 15.5347 33.6518 21.1357C34.143 21.2619 34.5099 21.7461 34.4867 22.2426C35.2372 22.1682 35.9076 22.404 36.3018 23.0537L36.4979 23.5731V27.2002H36.5ZM32.8528 21.0488C32.3089 16.4368 28.0018 13.1738 23.2941 13.8504C20.4501 14.258 17.9983 16.1037 16.8472 18.6776C16.5099 19.4308 16.2969 20.2315 16.1999 21.0488H16.9947C17.5829 15.7457 23.5661 12.7145 28.3286 15.4126C30.3862 16.5775 31.8071 18.7252 32.0559 21.0488H32.8507H32.8528ZM17.6356 28.7913C17.7052 28.7168 17.7453 28.5658 17.7474 28.4644L17.7242 22.1475C17.6862 21.9944 17.5998 21.9033 17.4375 21.8785C16.8936 21.7957 16.1451 21.9261 15.578 21.8847C15.4515 21.9509 15.363 22.0771 15.3567 22.2178L15.3672 28.6361C15.4178 28.8037 15.5338 28.8803 15.7066 28.8989C16.0587 28.9382 17.0432 28.9424 17.3932 28.8989C17.4733 28.8886 17.5808 28.8472 17.6335 28.7913H17.6356ZM31.4171 28.7913C31.4698 28.8472 31.5794 28.8906 31.6574 28.8989C32.0074 28.9403 32.9919 28.9382 33.344 28.8989C33.5169 28.8782 33.6328 28.8037 33.6834 28.6361L33.694 22.2178C33.6898 22.0771 33.5991 21.9488 33.4726 21.8847C32.9055 21.9261 32.1592 21.7957 31.6132 21.8785C31.4508 21.9033 31.3644 21.9944 31.3264 22.1475L31.3033 28.4644C31.3033 28.5658 31.3454 28.7189 31.415 28.7913H31.4171ZM14.564 23.0227C13.9315 22.9627 13.3981 23.1324 13.3454 23.8234C13.2653 24.8766 13.3918 26.0456 13.3686 27.1091C13.4972 27.645 13.9821 27.7775 14.486 27.7423L14.564 27.6802V23.0206V23.0227ZM34.4888 23.0227V27.6823L34.5668 27.7444C35.0706 27.7795 35.5576 27.6471 35.6841 27.1112C35.6609 26.0477 35.7853 24.8787 35.7073 23.8255C35.6546 23.1324 35.1212 22.9648 34.4888 23.0248V23.0227ZM22.3159 33.6371C21.4494 33.9123 21.5675 35.071 22.4972 35.1827C23.7474 35.3317 25.2758 35.0855 26.5555 35.1827C27.4853 35.0958 27.6075 33.8523 26.6968 33.6309L22.3159 33.6371Z" fill="#EBF0F6"/>
</g>
<defs>
<clipPath id="clip0_306_457">
<rect width="24" height="23" fill="white" transform="translate(12.5 13)"/>
</clipPath>
</defs>
</svg>
