<svg width="49" height="49" viewBox="0 0 49 49" fill="none" xmlns="http://www.w3.org/2000/svg">
<rect width="49" height="49" rx="24.5" fill="#356DA4"/>
<g clip-path="url(#clip0_306_462)">
<path d="M12.5 32.9057V31.7191L14.4184 28.0415V16.1695C14.4322 15.8531 14.6322 15.6177 14.945 15.5405C21.3137 15.4961 27.7101 15.473 34.0769 15.5521C34.3619 15.6312 34.5322 15.8396 34.5659 16.1251V28.0396C35.1657 29.3362 35.9635 30.5556 36.4881 31.8754C36.4941 32.5719 36.6327 33.3611 35.7121 33.498L13.1157 33.4672C12.8009 33.3861 12.6386 33.172 12.498 32.9057H12.5ZM33.8631 16.1946H15.1231V27.7926H33.8631V16.1946ZM35.5498 31.4895L33.9343 28.4756H15.0974L14.941 28.549L13.4364 31.4895H21.1672C21.2939 31.0862 21.4206 30.0829 21.7274 29.8224C21.7967 29.7626 21.8759 29.7202 21.9611 29.6854L26.8608 29.6623C27.0746 29.6623 27.3102 29.8166 27.4072 29.998C27.6092 30.3742 27.6883 31.0688 27.819 31.4914H35.5498V31.4895ZM21.87 31.4895H27.1162L26.7935 30.3742L26.7203 30.3434H22.2283L21.87 31.4875V31.4895ZM35.7834 32.1744H13.2028L13.2088 32.761L13.4582 32.815H35.4805L35.7774 32.761L35.7834 32.1744Z" fill="#EBF0F6"/>
<path d="M16.5763 21.1475C16.5109 21.5083 15.919 21.5681 15.8715 21.0588C15.7626 19.903 15.9526 18.5813 15.8774 17.4082C15.9071 17.1632 16.1031 17.003 16.3387 16.9451H32.6475C32.8831 17.0011 33.0811 17.1632 33.1088 17.4082C33.0138 18.5717 33.2513 19.9667 33.1147 21.1031C33.0791 21.3983 32.7287 21.545 32.5169 21.3405C32.505 21.3289 32.41 21.1591 32.41 21.1475V17.6089H16.5763V21.1475Z" fill="#EBF0F6"/>
<path d="M16.5762 26.3764H32.4119V22.8377C32.4119 22.8088 32.5564 22.6294 32.6 22.6101C32.8276 22.5078 33.085 22.6487 33.1167 22.8802C32.9999 24.0321 33.2652 25.458 33.1107 26.577C33.0791 26.8047 32.9662 26.9668 32.7405 27.0382L16.2832 27.0498C16.014 26.9745 15.9051 26.7989 15.8734 26.5346C15.7428 25.3981 15.9724 24.0398 15.8714 22.8802C15.9031 22.6467 16.1605 22.5078 16.3881 22.6101C16.4317 22.6294 16.5762 22.8088 16.5762 22.8377V26.3764Z" fill="#EBF0F6"/>
</g>
<defs>
<clipPath id="clip0_306_462">
<rect width="24" height="18" fill="white" transform="translate(12.5 15.5)"/>
</clipPath>
</defs>
</svg>
