<svg width="49" height="49" viewBox="0 0 49 49" fill="none" xmlns="http://www.w3.org/2000/svg">
<rect width="49" height="49" rx="24.5" fill="#356DA4"/>
<mask id="mask0_306_472" style="mask-type:alpha" maskUnits="userSpaceOnUse" x="10" y="9" width="30" height="31">
<rect x="10" y="9.99988" width="29.0002" height="29.0002" fill="#D9D9D9"/>
</mask>
<g mask="url(#mask0_306_472)">
<path d="M17.25 33.7018C16.7133 33.7018 16.2538 33.5107 15.8716 33.1285C15.4893 32.7462 15.2982 32.2868 15.2982 31.7501C15.2982 31.2133 15.4893 30.7539 15.8716 30.3716C16.2538 29.9894 16.7133 29.7983 17.25 29.7983C17.7867 29.7983 18.2462 29.9894 18.6284 30.3716C19.0107 30.7539 19.2018 31.2133 19.2018 31.7501C19.2018 32.2868 19.0107 32.7462 18.6284 33.1285C18.2462 33.5107 17.7867 33.7018 17.25 33.7018ZM24.5001 33.7018C23.9633 33.7018 23.5039 33.5107 23.1216 33.1285C22.7394 32.7462 22.5483 32.2868 22.5483 31.7501C22.5483 31.2133 22.7394 30.7539 23.1216 30.3716C23.5039 29.9894 23.9633 29.7983 24.5001 29.7983C25.0368 29.7983 25.4962 29.9894 25.8785 30.3716C26.2607 30.7539 26.4518 31.2133 26.4518 31.7501C26.4518 32.2868 26.2607 32.7462 25.8785 33.1285C25.4962 33.5107 25.0368 33.7018 24.5001 33.7018ZM31.7501 33.7018C31.2134 33.7018 30.7539 33.5107 30.3717 33.1285C29.9895 32.7462 29.7983 32.2868 29.7983 31.7501C29.7983 31.2133 29.9895 30.7539 30.3717 30.3716C30.7539 29.9894 31.2134 29.7983 31.7501 29.7983C32.2868 29.7983 32.7463 29.9894 33.1285 30.3716C33.5108 30.7539 33.7019 31.2133 33.7019 31.7501C33.7019 32.2868 33.5108 32.7462 33.1285 33.1285C32.7463 33.5107 32.2868 33.7018 31.7501 33.7018ZM17.25 26.4518C16.7133 26.4518 16.2538 26.2607 15.8716 25.8784C15.4893 25.4962 15.2982 25.0367 15.2982 24.5C15.2982 23.9633 15.4893 23.5038 15.8716 23.1216C16.2538 22.7393 16.7133 22.5482 17.25 22.5482C17.7867 22.5482 18.2462 22.7393 18.6284 23.1216C19.0107 23.5038 19.2018 23.9633 19.2018 24.5C19.2018 25.0367 19.0107 25.4962 18.6284 25.8784C18.2462 26.2607 17.7867 26.4518 17.25 26.4518ZM24.5001 26.4518C23.9633 26.4518 23.5039 26.2607 23.1216 25.8784C22.7394 25.4962 22.5483 25.0367 22.5483 24.5C22.5483 23.9633 22.7394 23.5038 23.1216 23.1216C23.5039 22.7393 23.9633 22.5482 24.5001 22.5482C25.0368 22.5482 25.4962 22.7393 25.8785 23.1216C26.2607 23.5038 26.4518 23.9633 26.4518 24.5C26.4518 25.0367 26.2607 25.4962 25.8785 25.8784C25.4962 26.2607 25.0368 26.4518 24.5001 26.4518ZM31.7501 26.4518C31.2134 26.4518 30.7539 26.2607 30.3717 25.8784C29.9895 25.4962 29.7983 25.0367 29.7983 24.5C29.7983 23.9633 29.9895 23.5038 30.3717 23.1216C30.7539 22.7393 31.2134 22.5482 31.7501 22.5482C32.2868 22.5482 32.7463 22.7393 33.1285 23.1216C33.5108 23.5038 33.7019 23.9633 33.7019 24.5C33.7019 25.0367 33.5108 25.4962 33.1285 25.8784C32.7463 26.2607 32.2868 26.4518 31.7501 26.4518ZM17.25 19.2017C16.7133 19.2017 16.2538 19.0106 15.8716 18.6284C15.4893 18.2461 15.2982 17.7866 15.2982 17.2499C15.2982 16.7132 15.4893 16.2538 15.8716 15.8715C16.2538 15.4893 16.7133 15.2982 17.25 15.2982C17.7867 15.2982 18.2462 15.4893 18.6284 15.8715C19.0107 16.2538 19.2018 16.7132 19.2018 17.2499C19.2018 17.7866 19.0107 18.2461 18.6284 18.6284C18.2462 19.0106 17.7867 19.2017 17.25 19.2017ZM24.5001 19.2017C23.9633 19.2017 23.5039 19.0106 23.1216 18.6284C22.7394 18.2461 22.5483 17.7866 22.5483 17.2499C22.5483 16.7132 22.7394 16.2538 23.1216 15.8715C23.5039 15.4893 23.9633 15.2982 24.5001 15.2982C25.0368 15.2982 25.4962 15.4893 25.8785 15.8715C26.2607 16.2538 26.4518 16.7132 26.4518 17.2499C26.4518 17.7866 26.2607 18.2461 25.8785 18.6284C25.4962 19.0106 25.0368 19.2017 24.5001 19.2017ZM31.7501 19.2017C31.2134 19.2017 30.7539 19.0106 30.3717 18.6284C29.9895 18.2461 29.7983 17.7866 29.7983 17.2499C29.7983 16.7132 29.9895 16.2538 30.3717 15.8715C30.7539 15.4893 31.2134 15.2982 31.7501 15.2982C32.2868 15.2982 32.7463 15.4893 33.1285 15.8715C33.5108 16.2538 33.7019 16.7132 33.7019 17.2499C33.7019 17.7866 33.5108 18.2461 33.1285 18.6284C32.7463 19.0106 32.2868 19.2017 31.7501 19.2017Z" fill="#EBF0F6"/>
</g>
</svg>
