<svg width="49" height="49" viewBox="0 0 49 49" fill="none" xmlns="http://www.w3.org/2000/svg">
<rect width="49" height="49" rx="24.5" fill="#356DA4"/>
<g clip-path="url(#clip0_306_467)">
<path d="M35.4628 12.5C35.9687 12.6542 36.3608 13.0175 36.4388 13.5603C36.3377 15.1718 36.5906 16.984 36.4452 18.5702C36.4051 19.0011 36.1184 19.4594 35.7031 19.6073C35.6357 19.6305 35.2984 19.715 35.2499 19.715H34.0568V20.8872H35.3427C35.4249 20.8872 35.779 21.0139 35.8676 21.0646C36.2301 21.278 36.4135 21.6708 36.4452 22.0806C36.5653 23.69 36.3608 25.4578 36.4304 27.0842C36.3798 27.5679 35.8254 28.1043 35.3427 28.1043H34.0568V29.2766H35.2499C35.2984 29.2766 35.6357 29.361 35.7031 29.3843C36.091 29.5237 36.3988 29.9714 36.4431 30.377C36.3081 31.9737 36.6243 33.8725 36.4367 35.4334C36.3819 35.8854 36.013 36.3247 35.5745 36.443C28.2723 36.5591 20.9511 36.4578 13.6425 36.4937C13.0502 36.443 12.6707 36.0586 12.4979 35.5073V30.2587C12.637 29.8912 12.8436 29.5237 13.2378 29.3822C13.3052 29.3589 13.6425 29.2744 13.691 29.2744H14.8842V28.1022H13.5983C13.5666 28.1022 13.2884 28.0198 13.2336 27.9987C12.8436 27.8488 12.6265 27.5003 12.4979 27.118V21.8694C12.6243 21.4871 12.8436 21.1407 13.2336 20.9886C13.2884 20.9675 13.5666 20.8851 13.5983 20.8851H14.8842V19.7129H13.691C13.6425 19.7129 13.3052 19.6284 13.2378 19.6052C12.8457 19.4637 12.6391 19.0961 12.4979 18.7286V13.4842C12.6496 12.9837 12.9785 12.65 13.4823 12.5H35.4628ZM13.6573 13.3068C13.4128 13.3512 13.3221 13.5054 13.2947 13.7419C13.1324 15.1972 13.4191 16.9439 13.2926 18.4308C13.3221 18.7307 13.4128 18.8469 13.7142 18.8997L35.0686 18.923C35.3384 18.8997 35.5703 18.8575 35.6399 18.5597L35.6504 13.744C35.6336 13.5117 35.524 13.3533 35.2879 13.3089H13.6573V13.3068ZM16.4757 19.7171H15.681V20.8893H16.4757V19.7171ZM31.6747 19.7171H17.2705V20.8893H31.6747V19.7171ZM33.2641 19.7171H32.4694V20.8893H33.2641V19.7171ZM13.7058 21.6962C13.3917 21.7447 13.3221 21.8736 13.2947 22.1735C13.1577 23.6583 13.4022 25.3544 13.2947 26.8603C13.3179 27.0736 13.3959 27.2447 13.6278 27.2764L35.1129 27.3081C35.3785 27.2848 35.5851 27.2426 35.6378 26.9448L35.6483 22.1291C35.6251 21.9158 35.5471 21.7447 35.3153 21.7131L13.7037 21.6962H13.7058ZM16.4757 28.1043H15.681V29.2766H16.4757V28.1043ZM31.6747 28.1043H17.2705V29.2766H31.6747V28.1043ZM33.2641 28.1043H32.4694V29.2766H33.2641V28.1043ZM13.7521 30.0834C13.4359 30.1299 13.3242 30.2418 13.2926 30.5607C13.4191 32.0477 13.1324 33.7944 13.2947 35.2496C13.3221 35.4841 13.4106 35.6404 13.6573 35.6847L35.1614 35.6974C35.408 35.6932 35.5935 35.5897 35.6399 35.3341L35.6525 30.5185C35.6125 30.2397 35.5008 30.1425 35.233 30.0961L13.7521 30.0876V30.0834Z" fill="#EBF0F6"/>
<path d="M16.9732 15.2817C17.0828 15.4 17.1503 15.5415 17.2051 15.6893H25.1967C25.6668 15.7062 25.8333 16.173 25.4517 16.4581L17.2915 16.4835C17.144 16.5109 17.1398 16.6989 17.0554 16.8087C16.5073 17.5311 15.3627 17.436 14.998 16.5785C14.4625 15.3134 16.0647 14.3186 16.9711 15.2817H16.9732ZM16.0857 15.6999C15.5798 15.7273 15.6009 16.4476 16.0309 16.4877C16.6486 16.5447 16.5853 15.6745 16.0857 15.6999Z" fill="#EBF0F6"/>
<path d="M30.8799 18.076H30.0388V17.3494L30.1168 17.286C30.355 17.3008 30.6881 17.2058 30.882 17.3494V18.076H30.8799Z" fill="#EBF0F6"/>
<path d="M30.8799 14.8888H30.0388V14.1623L30.1168 14.0989C30.355 14.1137 30.6881 14.0186 30.882 14.1623V14.8888H30.8799Z" fill="#EBF0F6"/>
<path d="M30.8799 16.4834H30.0388V15.7569L30.1168 15.6935C30.355 15.7083 30.6881 15.6132 30.882 15.7569V16.4834H30.8799Z" fill="#EBF0F6"/>
<path d="M27.6525 15.6872H26.8578V16.4835H27.6525V15.6872Z" fill="#EBF0F6"/>
<path d="M27.6525 14.0925H26.8578V14.8888H27.6525V14.0925Z" fill="#EBF0F6"/>
<path d="M29.242 14.0925H28.4473V14.8888H29.242V14.0925Z" fill="#EBF0F6"/>
<path d="M34.0589 15.6872H33.2642V16.4835H34.0589V15.6872Z" fill="#EBF0F6"/>
<path d="M34.0589 14.0925H33.2642V14.8888H34.0589V14.0925Z" fill="#EBF0F6"/>
<path d="M32.4694 14.0925H31.6747V14.8888H32.4694V14.0925Z" fill="#EBF0F6"/>
<path d="M32.4694 16.4835H31.6747V15.6872H32.3998L32.4694 15.7569V16.4835Z" fill="#EBF0F6"/>
<path d="M27.6525 17.2797V18.076H26.8578V17.3494L26.9274 17.2797H27.6525Z" fill="#EBF0F6"/>
<path d="M34.0589 18.076H33.2642V17.2797H33.9893L34.0589 17.3494V18.076Z" fill="#EBF0F6"/>
<path d="M29.242 15.6872V16.4835H28.4473V15.7569L28.5168 15.6872H29.242Z" fill="#EBF0F6"/>
<path d="M32.4694 18.076H31.6747V17.2797H32.3998L32.4694 17.3494V18.076Z" fill="#EBF0F6"/>
<path d="M29.242 17.2797V18.076H28.4473V17.3494L28.5168 17.2797H29.242Z" fill="#EBF0F6"/>
<path d="M17.1819 33.3107C16.8763 34.3034 15.4196 34.352 15.0001 33.3994C14.4099 32.0561 16.1996 31.0571 17.0554 32.1849C17.1398 32.2948 17.1461 32.4828 17.2915 32.5102L25.4517 32.5356C25.8312 32.8207 25.6689 33.2875 25.1967 33.3086L17.1819 33.3149V33.3107ZM15.9466 32.5187C15.5482 32.6369 15.6662 33.3656 16.149 33.2854C16.6844 33.1966 16.5263 32.3455 15.9466 32.5187Z" fill="#EBF0F6"/>
<path d="M30.88 34.1006V34.8272L30.802 34.8906C30.5638 34.8758 30.2307 34.9708 30.0367 34.8272V34.1006H30.8778H30.88Z" fill="#EBF0F6"/>
<path d="M30.88 32.5081V33.2347L30.802 33.298C30.5638 33.2833 30.2307 33.3783 30.0367 33.2347V32.5081H30.8778H30.88Z" fill="#EBF0F6"/>
<path d="M30.88 30.9156V31.6422L30.802 31.7055C30.5638 31.6907 30.2307 31.7858 30.0367 31.6422V30.9156H30.8778H30.88Z" fill="#EBF0F6"/>
<path d="M34.0589 34.1006H33.2642V34.8969H34.0589V34.1006Z" fill="#EBF0F6"/>
<path d="M32.4694 34.1006H31.6747V34.8969H32.4694V34.1006Z" fill="#EBF0F6"/>
<path d="M29.242 34.1006H28.4473V34.8969H29.242V34.1006Z" fill="#EBF0F6"/>
<path d="M27.6525 34.1006H26.8578V34.8969H27.6525V34.1006Z" fill="#EBF0F6"/>
<path d="M34.0589 32.5081H33.2642V33.3044H34.0589V32.5081Z" fill="#EBF0F6"/>
<path d="M27.6525 32.5081H26.8578V33.3044H27.6525V32.5081Z" fill="#EBF0F6"/>
<path d="M27.6525 30.9156V31.7119H26.9274L26.8578 31.6422V30.9156H27.6525Z" fill="#EBF0F6"/>
<path d="M29.242 30.9156V31.7119H28.5168L28.4473 31.6422V30.9156H29.242Z" fill="#EBF0F6"/>
<path d="M32.4694 30.9156V31.6422L32.3998 31.7119H31.6747V30.9156H32.4694Z" fill="#EBF0F6"/>
<path d="M34.0589 30.9156V31.6422L33.9893 31.7119H33.2642V30.9156H34.0589Z" fill="#EBF0F6"/>
<path d="M29.242 32.5081V33.3044H28.5168L28.4473 33.2347V32.5081H29.242Z" fill="#EBF0F6"/>
<path d="M32.4694 32.5081V33.2347L32.3998 33.3044H31.6747V32.5081H32.4694Z" fill="#EBF0F6"/>
<path d="M17.184 24.066L25.1503 24.0744C25.8586 24.1167 25.8059 24.9235 25.106 24.9193L17.2093 24.9151C16.7687 26.0704 15.0486 25.8803 14.8989 24.6468C14.7303 23.2592 16.695 22.7544 17.1861 24.066H17.184ZM15.9466 24.1315C15.6346 24.2054 15.622 24.7566 15.9108 24.8496C16.6401 25.0883 16.695 23.9519 15.9466 24.1315Z" fill="#EBF0F6"/>
<path d="M30.1147 24.0807L30.8589 24.1188L30.8357 24.8981L30.0578 24.8749C30.0431 24.7292 29.9756 24.1272 30.1147 24.0829V24.0807Z" fill="#EBF0F6"/>
<path d="M27.6525 24.0744V24.9171H26.9274L26.8641 24.839C26.8789 24.6003 26.784 24.2666 26.9274 24.0723H27.6525V24.0744Z" fill="#EBF0F6"/>
<path d="M30.88 25.7134V26.44L30.802 26.5034C30.5638 26.4886 30.2307 26.5836 30.0367 26.44V25.7134H30.8778H30.88Z" fill="#EBF0F6"/>
<path d="M33.2642 24.9171V24.0744H33.9893L34.0526 24.1526C34.0378 24.3912 34.1327 24.7249 33.9893 24.9192H33.2642V24.9171Z" fill="#EBF0F6"/>
<path d="M31.6747 24.9171V24.0744H32.3998L32.4631 24.1526C32.4483 24.3912 32.5432 24.7249 32.3998 24.9192H31.6747V24.9171Z" fill="#EBF0F6"/>
<path d="M29.242 24.0744V24.9171H28.5168L28.4536 24.839C28.4684 24.6003 28.3735 24.2666 28.5168 24.0723H29.242V24.0744Z" fill="#EBF0F6"/>
<path d="M30.8799 23.2781H30.0388V22.5515L30.1168 22.4882C30.355 22.503 30.6881 22.4079 30.882 22.5515V23.2781H30.8799Z" fill="#EBF0F6"/>
<path d="M34.0589 22.4797H33.2642V23.276H34.0589V22.4797Z" fill="#EBF0F6"/>
<path d="M27.6525 22.4797H26.8578V23.276H27.6525V22.4797Z" fill="#EBF0F6"/>
<path d="M27.6525 25.7134H26.8578V26.5097H27.6525V25.7134Z" fill="#EBF0F6"/>
<path d="M34.0589 25.7134H33.2642V26.5097H34.0589V25.7134Z" fill="#EBF0F6"/>
<path d="M32.4694 23.2781H31.6747V22.4797H32.3998L32.4694 22.5515V23.2781Z" fill="#EBF0F6"/>
<path d="M29.242 25.7134V26.5097H28.5168L28.4473 26.44V25.7134H29.242Z" fill="#EBF0F6"/>
<path d="M29.242 22.4797V23.2781H28.4473V22.5515L28.5168 22.4797H29.242Z" fill="#EBF0F6"/>
<path d="M32.4694 25.7134V26.44L32.3998 26.5097H31.6747V25.7134H32.4694Z" fill="#EBF0F6"/>
</g>
<defs>
<clipPath id="clip0_306_467">
<rect width="24" height="24" fill="white" transform="translate(12.5 12.5)"/>
</clipPath>
</defs>
</svg>
