<svg width="49" height="49" viewBox="0 0 49 49" fill="none" xmlns="http://www.w3.org/2000/svg">
<rect width="49" height="49" rx="24.5" fill="#356DA4"/>
<path d="M33.0294 12.5C33.6067 12.6391 33.9796 13.0626 34.0513 13.6504L34.0555 22.8093C34.6602 23.7848 34.9804 24.754 34.7908 25.9254C34.6201 26.9789 34.0449 27.7964 33.2612 28.4854C34.9889 28.6624 36.3225 30.1035 36.4426 31.827C36.5016 32.6782 36.5101 34.0688 36.4426 34.9158C36.3752 35.7627 35.7768 36.3527 34.9678 36.4328C32.3109 36.2768 29.4139 36.6413 26.7865 36.4349C26.1271 36.3822 25.2695 35.7606 25.2695 35.0548V33.2555H17.9563C17.8931 33.2555 17.5244 33.108 17.4507 33.0616C16.7743 32.636 16.7069 31.5868 17.3495 31.1064C17.8721 30.7166 18.4599 30.9442 19.0562 30.8494L19.7578 29.6568H13.5613C13.5423 29.6568 13.2536 29.5599 13.2115 29.5409C12.8365 29.3724 12.6511 29.0416 12.5099 28.675V13.4818C12.6784 12.9741 12.9839 12.6686 13.4917 12.5H33.0294ZM33.2633 22.0824V13.6925C33.2633 13.5682 33.08 13.3365 32.9367 13.3175H13.6308C13.517 13.3259 13.3042 13.5556 13.3042 13.6462V26.8504H14.0985V26.1256C14.0985 25.9865 14.2144 25.5567 14.2608 25.4008C14.64 24.1366 15.7925 23.1422 17.0883 22.923C14.7727 21.109 15.4912 17.3481 18.3609 16.6001C21.7889 15.7089 24.2666 19.7268 22.0206 22.4111L21.4834 22.923C22.8423 23.1527 24.0117 24.2041 24.3572 25.5399C24.3825 25.641 24.4731 26.0076 24.4731 26.0771V26.8483H27.1847C25.6256 23.0621 29.9512 19.6636 33.2612 22.0803L33.2633 22.0824ZM19.1868 17.2807C15.5291 17.4113 15.7145 23.0136 19.408 22.8788C23.0383 22.7461 22.8739 17.15 19.1868 17.2807ZM30.4505 22.0971C28.1476 22.3457 26.9087 25.0721 28.1792 27.0063C29.3739 28.8267 31.997 28.951 33.3581 27.2486C35.1511 25.0047 33.2991 21.7895 30.4526 22.0992L30.4505 22.0971ZM17.7878 23.6773C17.4148 23.6373 17.0503 23.7447 16.6985 23.8543C16.6058 23.9196 16.8059 24.5138 16.846 24.6423C17.0567 25.3313 17.3622 26.0413 17.7225 26.6629C17.773 26.1467 18.0785 25.405 18.0764 24.9099C18.0764 24.5517 17.8194 24.0503 17.7878 23.6752V23.6773ZM19.9895 23.671H18.6348L18.8181 24.4443L19.7746 24.4674L19.9895 23.671ZM21.9532 23.8585C21.5676 23.7785 21.1905 23.6225 20.7881 23.6752C20.7607 24.0418 20.4952 24.558 20.5015 24.9078C20.5121 25.4261 20.8323 26.1151 20.8302 26.6629C21.0725 26.3468 21.26 25.9149 21.4117 25.5399C21.6329 24.9942 21.8036 24.4274 21.9511 23.8585H21.9532ZM16.9029 26.8504C16.6606 26.3847 16.4414 25.9065 16.2602 25.4134C16.1296 25.0553 16.0453 24.6802 15.8979 24.3284C15.1457 24.9562 14.8275 25.8833 14.8928 26.8525H16.9029V26.8504ZM23.6809 26.8504V26.1719C23.6809 26.0434 23.5482 25.6136 23.4955 25.4703C23.3311 25.0216 23.0277 24.6191 22.6527 24.3263C22.4399 25.2028 22.0691 26.0245 21.7172 26.8504H23.6809ZM18.4936 26.8504H20.0822L19.7493 25.2681H18.8244L18.4936 26.8504ZM27.7009 27.6447H13.3042V28.5085C13.3042 28.597 13.5149 28.8288 13.6308 28.8372L27.1658 28.8604C27.5977 28.6961 28.0212 28.4938 28.4974 28.4854C28.2277 28.2199 27.8737 27.9839 27.703 27.6447H27.7009ZM28.7207 29.2481C27.6061 29.3471 26.6243 30.0108 26.2514 31.079C25.9796 31.8565 25.9901 33.955 26.0638 34.8209C26.0954 35.1854 26.283 35.4825 26.6348 35.6047L34.8793 35.6384C35.3049 35.6132 35.6146 35.2845 35.6504 34.8673C35.72 34.0898 35.7305 31.9007 35.5219 31.2054C35.1743 30.0466 34.0955 29.3155 32.9135 29.2333C31.7315 29.1512 29.8648 29.1448 28.7207 29.246V29.2481ZM26.1587 29.6547H20.689L20.0338 30.8704H25.4318L26.1565 29.6547H26.1587ZM25.2716 31.6647H17.9563C17.8025 31.6647 17.6803 31.9513 17.6993 32.1051C17.7182 32.2463 17.9142 32.4591 18.049 32.4591H25.2716V31.6647Z" fill="#EBF0F6"/>
<path d="M25.2716 20.4937C24.57 20.5738 23.8052 20.2367 23.6935 19.4761C23.5039 18.1697 23.8094 16.4863 23.6809 15.14C23.7757 14.569 24.2456 14.1244 24.825 14.0865C26.9108 14.2234 29.2179 13.9095 31.2785 14.0865C31.9738 14.1455 32.4057 14.5922 32.469 15.2811C32.5617 16.3051 32.5532 18.2245 32.4711 19.2548C32.3215 21.1595 29.8311 20.2893 28.5774 20.5021C27.8948 20.8898 27.2458 21.5345 26.5758 21.9138C26.2408 22.1013 26.007 22.1582 25.6593 21.9496C25.1431 21.642 25.2885 20.9952 25.2716 20.4916V20.4937ZM26.066 21.2417L28.3436 19.7099C29.2495 19.6172 30.2967 19.7984 31.1837 19.6994C31.5461 19.6594 31.6451 19.514 31.6767 19.1642C31.761 18.195 31.7505 16.4442 31.6767 15.4686C31.6536 15.1568 31.5925 14.904 31.2301 14.8871C29.199 15.0262 26.9193 14.7017 24.9177 14.885C24.7196 14.904 24.6143 14.9588 24.511 15.1336L24.4857 19.3897C24.6796 19.9712 25.6256 19.5161 25.9501 19.7963C25.9775 19.8195 26.066 19.9438 26.066 19.9606V21.2459V21.2417Z" fill="#EBF0F6"/>
<path d="M25.6804 17.2806L30.4315 17.2722C30.9309 17.2954 31.0025 17.9485 30.5306 18.0644L25.575 18.0602C25.1073 17.9359 25.2 17.308 25.6783 17.2806H25.6804Z" fill="#EBF0F6"/>
<path d="M27.9664 16.3641C27.9137 16.421 27.8042 16.4653 27.7262 16.4737C27.071 16.5537 26.2514 16.4126 25.5772 16.4695C25.1789 16.4063 25.1368 15.7573 25.672 15.6815C26.047 15.6288 27.2985 15.6288 27.6736 15.6815C28.0191 15.7299 28.2066 16.1008 27.9664 16.3641Z" fill="#EBF0F6"/>
</svg>
