<svg width="47" height="32" viewBox="0 0 47 32" fill="none" xmlns="http://www.w3.org/2000/svg">
<g clip-path="url(#clip0_402_18109)">
<path d="M0 10.6057C0.0047 7.07048 0 3.53524 0 0H46.9953C46.9953 3.53524 46.9953 7.07048 46.9953 10.6057H0Z" fill="#E87403"/>
<path d="M47 21.3945C47 24.9298 47 28.465 47 32.0002H0C0 28.465 0.0047 24.9298 0 21.3945H46.9953H47Z" fill="#258B05"/>
<path d="M47 10.606C47 14.2021 47 17.803 47 21.3945H0C0 17.7983 0 14.1975 0 10.606H46.9953H47ZM22.7292 11.2811C19.5097 11.6843 17.7378 15.4868 19.2841 18.2953C20.7364 20.9304 24.3225 21.6102 26.6161 19.6269C30.2398 16.4902 27.6031 10.6716 22.7245 11.2811H22.7292Z" fill="#F3F4F2"/>
<path d="M22.7299 11.2808C27.6038 10.6666 30.2452 16.4899 26.6215 19.6266C24.3279 21.6099 20.7418 20.9301 19.2895 18.295C17.7385 15.4866 19.5151 11.6841 22.7346 11.2808H22.7299ZM23.4067 11.6278C23.1952 11.4309 22.9978 11.8153 22.9743 11.82C22.7299 11.8622 22.4385 11.6184 22.0813 11.82C21.9544 11.8904 21.945 12.0873 21.8228 12.1482C21.6818 12.2186 21.4656 12.0029 21.1695 12.2373C20.9815 12.3874 20.9815 12.6452 20.8922 12.7109C20.8029 12.7765 20.6384 12.6312 20.5162 12.7015C20.4974 12.7109 20.206 13.0109 20.1919 13.0297C20.112 13.1844 20.1684 13.386 20.0979 13.4986C20.0227 13.6158 19.6185 13.5876 19.5292 14.0518C19.4963 14.23 19.5997 14.3613 19.5856 14.4597C19.5715 14.5582 19.2895 14.5535 19.219 14.7739C19.1391 15.0411 19.2989 15.2287 19.2895 15.4115C19.2801 15.5709 19.0498 15.7069 19.1109 15.9179L21.9074 15.8241L19.7642 15.1724C19.7501 15.0083 20.0791 15.0739 20.1825 15.0833C20.8311 15.1349 21.4515 15.3787 22.0954 15.4537L20.0462 14.155C20.5209 14.2347 21.2729 14.5441 21.6959 14.7879C22.1189 15.0318 22.5325 15.5241 23.0307 15.6413C23.073 15.4819 22.885 15.585 22.8521 15.5428C22.8051 15.4866 22.9555 15.2943 22.9414 15.2709C22.932 15.2521 22.6547 15.2193 22.5419 15.1537C21.8134 14.7364 21.3998 14.0096 20.7935 13.4564L21.1225 13.4986L22.5607 14.8958C22.3304 14.2066 21.9262 13.5173 21.5361 12.8937L21.6724 12.8468L22.932 14.7035C22.8944 14.4129 22.3022 12.5608 22.3727 12.4718C22.5137 12.2983 22.5748 12.5937 22.603 12.6546C22.9602 13.4235 23.355 14.5254 23.12 15.3506H23.3973C23.4678 14.9192 23.308 14.5113 23.2986 14.0987C23.2892 13.733 23.4866 11.7122 23.3973 11.6278H23.4067ZM24.9671 11.8435C24.3984 11.5012 24.1963 11.8247 24.0318 11.7966C23.919 11.7825 23.7263 11.5293 23.5007 11.6278C23.5571 12.6171 23.7686 13.6205 23.5947 14.6051C23.8814 14.652 23.7451 14.5348 23.778 14.3707C23.8062 14.2347 24.2668 12.2373 24.4313 12.4624C24.4031 12.9359 24.3326 13.5079 24.2198 13.9721C24.1869 14.1034 23.9425 14.577 23.966 14.6004C24.1164 14.7692 24.1634 14.4738 24.1963 14.4175C24.5582 13.8174 24.8684 13.1563 25.3619 12.6499C25.1598 13.4329 24.6898 14.2019 24.2433 14.8817C24.4924 14.9333 24.4501 14.863 24.5535 14.7692C24.9342 14.4175 25.2491 13.8877 25.7849 13.6767C25.9447 13.7752 25.7426 13.883 25.6909 13.9581C25.4935 14.2441 25.2397 14.4738 25.0611 14.7692L24.7133 14.9802C25.3478 14.8817 26.0481 14.1597 26.6215 14.0518C26.7202 14.0331 26.8283 14.0424 26.7155 14.1456L25.0846 15.2615C25.7849 15.2803 26.4382 14.8536 27.1338 14.938C26.4053 15.3975 25.564 15.5241 24.7509 15.7257C24.5958 15.7632 24.4783 15.6319 24.5253 15.9132L26.1609 15.8148L27.7871 16.0023L24.9906 16.1898L26.598 16.6775L26.8518 16.8369C26.0058 16.8931 25.2397 16.5227 24.4266 16.3727L25.5734 16.9494L26.5698 17.6293C25.752 17.6621 25.1645 16.8791 24.4266 16.7478L24.6804 16.865C25.0799 17.4698 25.6956 17.8684 26.1045 18.4685C26.1609 18.5529 26.3254 18.6748 26.1045 18.6983C26.081 18.3513 25.752 18.3607 25.5405 18.1919L24.1446 16.9307C24.5159 17.4417 25.2256 18.4029 25.3525 19.0265C25.3713 19.1203 25.4089 19.2797 25.2632 19.2515C24.9906 18.6983 24.6193 18.1872 24.2809 17.6715C24.248 17.6199 24.2104 17.3245 24.0506 17.4886C24.0365 17.5027 24.201 17.6996 24.2292 17.8215C24.3655 18.3326 24.5018 18.9186 24.5159 19.4438L23.9096 18.0512C23.7075 17.8215 23.825 16.7009 23.7733 16.654C23.637 16.5321 23.3033 16.7103 23.308 16.9307C23.3785 16.94 23.5477 16.9025 23.5806 16.9353C23.6135 16.9729 23.6793 17.7699 23.684 17.9012C23.7122 18.7123 23.5007 19.5422 23.59 20.3721C23.8015 20.4331 23.9331 20.2033 24.0976 20.194C24.3467 20.1846 24.4924 20.3627 24.859 20.194C25.0846 20.0908 25.0893 19.9033 25.1739 19.8517C25.2961 19.7767 25.5405 20.0158 25.8601 19.7063C26.0058 19.5657 26.0293 19.3453 26.0998 19.2984C26.2126 19.2234 26.4335 19.2797 26.6215 19.1671C26.9223 18.9843 26.786 18.6655 26.8941 18.506C26.9881 18.3701 27.3782 18.4216 27.4816 17.8824C27.5051 17.7605 27.4064 17.6199 27.4252 17.5402C27.4534 17.4276 27.8717 17.3386 27.8529 16.8603C27.8482 16.715 27.6931 16.6306 27.6884 16.5087C27.6884 16.4102 27.8482 16.2508 27.8811 16.0492C27.9704 15.5053 27.6978 15.5194 27.6884 15.4725C27.632 15.1865 28.0597 14.6942 27.5051 14.7879C27.5803 14.6098 27.773 14.7551 27.6931 14.4175C27.256 14.5019 27.4769 14.2019 27.3641 13.8643C27.2231 13.447 26.8095 13.4282 26.7766 13.3814C26.7155 13.3063 26.8706 12.9359 26.4617 12.7156C26.3395 12.6499 26.128 12.6827 26.0199 12.603C25.8648 12.4858 25.9588 12.1764 25.4606 12.0404C25.3384 12.0076 25.2162 12.0873 25.141 12.0685C25.0188 12.0357 25.0141 11.8669 24.9671 11.8388V11.8435ZM22.8474 16.0914L21.3105 16.1898L19.1203 15.9976C19.031 16.2367 19.2895 16.4337 19.2989 16.5978C19.3036 16.7244 19.2049 16.8744 19.219 17.0572C19.2472 17.5402 19.6373 17.6105 19.6655 17.7277C19.6843 17.8074 19.5809 17.9293 19.6373 18.1309C19.7266 18.4685 20.0791 18.4545 20.1308 18.5248C20.2201 18.6514 20.206 19.1203 20.5256 19.2984C20.6478 19.3687 20.8123 19.2234 20.9016 19.289C20.9815 19.35 21.0003 19.5657 21.0802 19.6735C21.3528 20.0252 21.9356 19.847 22.0108 19.9126C22.086 19.9783 21.8604 20.2783 22.5278 20.2783C22.6547 20.2783 22.7957 20.1846 22.9085 20.1893C23.073 20.1986 23.2704 20.4565 23.5101 20.3674C23.449 19.4719 23.2234 18.4498 23.4161 17.5777C23.1576 17.5308 23.2563 17.6293 23.2046 17.7793C23.1153 18.0325 22.744 19.4531 22.6688 19.5282C22.6641 19.5329 22.4714 19.561 22.4855 19.486L22.9508 17.3901C22.5795 17.8262 22.3351 18.5389 21.9638 18.9655C21.8698 19.0734 21.8228 19.1953 21.6442 19.1578C21.9262 18.7405 22.0719 18.1497 22.3116 17.7324C22.4338 17.5214 23.2328 16.6212 23.1341 16.4618L22.7628 16.504C22.5325 16.7712 23.0589 16.3961 22.9508 16.6915C22.9273 16.7572 22.838 16.729 22.7722 16.8181C22.5513 17.1041 22.3022 17.4417 22.0155 17.7183C21.7147 18.009 21.2776 18.3466 20.9298 18.5904L20.9016 18.4967L21.9215 17.2073C21.8416 17.137 20.9345 17.6855 20.7371 17.7465C20.6478 17.7699 20.4081 17.8356 20.4316 17.6761L22.2035 16.5603L19.8723 17.1182C19.8958 16.9775 20.0415 16.94 20.1543 16.8885C20.7089 16.6212 21.6442 16.3352 22.2552 16.2742C22.5231 16.2461 22.8662 16.5134 22.8615 16.0961L22.8474 16.0914Z" fill="#1A3887"/>
<path d="M24.9657 11.8435C25.0127 11.8717 25.0221 12.0405 25.1396 12.0733C25.2101 12.092 25.337 12.0123 25.4592 12.0451C25.9574 12.1811 25.8634 12.4906 26.0185 12.6078C26.1266 12.6875 26.3381 12.6547 26.4603 12.7203C26.8692 12.9407 26.7141 13.3111 26.7752 13.3861C26.8128 13.4283 27.2217 13.447 27.3627 13.869C27.4802 14.2113 27.2546 14.5114 27.6917 14.4223C27.7716 14.7599 27.5836 14.6145 27.5037 14.7927C28.0583 14.6942 27.6306 15.1865 27.687 15.4772C27.6964 15.5288 27.969 15.5101 27.8797 16.0539C27.8468 16.2555 27.687 16.4196 27.687 16.5134C27.687 16.6353 27.8468 16.7244 27.8515 16.8651C27.8703 17.3386 27.452 17.4277 27.4238 17.5449C27.405 17.6246 27.5037 17.7653 27.4802 17.8872C27.3768 18.4264 26.982 18.3748 26.8927 18.5108C26.7846 18.6655 26.9209 18.989 26.6201 19.1719C26.4321 19.2844 26.2112 19.2281 26.0984 19.3032C26.0279 19.3547 25.9997 19.5704 25.8587 19.7111C25.5391 20.0205 25.29 19.7814 25.1725 19.8564C25.0879 19.908 25.0832 20.0909 24.8576 20.1987C24.491 20.3675 24.3453 20.1893 24.0962 20.1987C23.9364 20.2034 23.8001 20.4378 23.5886 20.3769C23.4993 19.5517 23.7108 18.7218 23.6826 17.9059C23.6826 17.77 23.6121 16.9729 23.5792 16.9401C23.551 16.9073 23.3771 16.9448 23.3066 16.9354C23.3066 16.7103 23.6356 16.5322 23.7719 16.6588C23.8236 16.7057 23.7108 17.8262 23.9082 18.056L24.5145 19.4485C24.5004 18.9234 24.3641 18.342 24.2278 17.8262C24.1949 17.709 24.0351 17.5074 24.0492 17.4933C24.209 17.3292 24.2466 17.6246 24.2795 17.6762C24.6179 18.192 24.9892 18.703 25.2618 19.2563C25.4075 19.2844 25.3699 19.1203 25.3511 19.0312C25.2289 18.4076 24.5145 17.4418 24.1432 16.9354L25.5391 18.1966C25.7553 18.3654 26.0843 18.3561 26.1031 18.703C26.324 18.6749 26.1595 18.5577 26.1031 18.4733C25.6942 17.8731 25.0785 17.4746 24.679 16.8698L24.4252 16.7525C25.1631 16.8885 25.7506 17.6715 26.5684 17.634L25.572 16.9542L24.4252 16.3774C25.2336 16.5275 25.9997 16.8979 26.8504 16.8416L26.5966 16.6822L24.9892 16.1946L27.7857 16.007L26.1595 15.8195L24.5239 15.918C24.4769 15.6366 24.5944 15.7679 24.7495 15.7304C25.5626 15.5288 26.4039 15.4022 27.1324 14.9427C26.4368 14.863 25.7788 15.285 25.0832 15.2662L26.7141 14.1503C26.8269 14.0425 26.7141 14.0378 26.6201 14.0566C26.0467 14.1691 25.3464 14.8865 24.7119 14.9849L25.0597 14.7739C25.2383 14.4785 25.4968 14.2488 25.6895 13.9628C25.7412 13.8878 25.9433 13.7799 25.7835 13.6815C25.2524 13.8925 24.9375 14.4223 24.5521 14.7739C24.4487 14.8677 24.491 14.9427 24.2419 14.8865C24.6884 14.2066 25.1537 13.4377 25.3605 12.6547C24.867 13.161 24.5568 13.8221 24.1949 14.4223C24.162 14.4785 24.115 14.7739 23.9646 14.6051C23.9411 14.5817 24.1855 14.1081 24.2184 13.9769C24.3312 13.5127 24.4017 12.9407 24.4299 12.4671C24.2654 12.2421 23.8048 14.2394 23.7766 14.3754C23.7437 14.5348 23.88 14.652 23.5933 14.6098C23.7672 13.6299 23.5557 12.6218 23.4993 11.6325C23.7249 11.5341 23.9176 11.7873 24.0304 11.8013C24.1949 11.8248 24.397 11.5059 24.9657 11.8482V11.8435Z" fill="#E8EAEE"/>
<path d="M22.8459 16.0916C22.8506 16.5042 22.5075 16.2417 22.2396 16.2698C21.6286 16.3307 20.698 16.6168 20.1387 16.884C20.0306 16.9356 19.8802 16.9778 19.8567 17.1137L22.1879 16.5558L20.416 17.6717C20.3925 17.8358 20.6322 17.7702 20.7215 17.742C20.9236 17.6858 21.8307 17.1325 21.9059 17.2028L20.886 18.4922L20.9142 18.586C21.262 18.3422 21.6991 18.0046 21.9999 17.7139C22.3007 17.4232 22.5357 17.0997 22.7566 16.8137C22.8224 16.7293 22.9117 16.7527 22.9352 16.6871C23.0433 16.3917 22.5169 16.7668 22.7472 16.4995L23.1185 16.4573C23.2172 16.6168 22.4182 17.517 22.296 17.728C22.0563 18.1453 21.9106 18.736 21.6286 19.1533C21.8025 19.1908 21.8542 19.0642 21.9482 18.9611C22.3195 18.5391 22.5592 17.8217 22.9352 17.3857L22.4699 19.4815C22.4558 19.5612 22.6485 19.5331 22.6532 19.5237C22.7284 19.4487 23.0997 18.028 23.189 17.7748C23.2407 17.6248 23.142 17.5264 23.4005 17.5732C23.2078 18.4453 23.4334 19.4674 23.4945 20.363C23.2548 20.4521 23.0574 20.1942 22.8929 20.1848C22.7754 20.1801 22.6391 20.2739 22.5122 20.2739C21.8448 20.2739 22.0657 19.9785 21.9952 19.9082C21.9247 19.8379 21.3372 20.016 21.0646 19.6691C20.98 19.5612 20.9659 19.3455 20.886 19.2846C20.7967 19.219 20.6369 19.3643 20.51 19.294C20.1904 19.1158 20.2092 18.6469 20.1152 18.5203C20.0635 18.45 19.711 18.4594 19.6217 18.1265C19.57 17.9249 19.6687 17.803 19.6499 17.7233C19.6217 17.6061 19.2316 17.5357 19.2034 17.0528C19.194 16.8699 19.2927 16.7199 19.2833 16.5933C19.2739 16.4292 19.0154 16.2323 19.1047 15.9932L21.2949 16.1854L22.8318 16.0869L22.8459 16.0916Z" fill="#E8EAEE"/>
<path d="M23.406 11.6278C23.4953 11.7122 23.3026 13.7331 23.3073 14.0988C23.3167 14.5114 23.4718 14.9193 23.406 15.3506H23.1287C23.3637 14.5207 22.9689 13.4189 22.6117 12.65C22.5835 12.589 22.5271 12.2936 22.3814 12.4671C22.3062 12.5562 22.9031 14.4082 22.9407 14.6989L21.6811 12.8422L21.5448 12.8891C21.9349 13.508 22.3391 14.1972 22.5694 14.8911L21.1312 13.4939L20.8022 13.4517C21.4085 14.005 21.8174 14.7317 22.5506 15.149C22.6587 15.21 22.936 15.2475 22.9501 15.2662C22.9642 15.285 22.8138 15.4819 22.8608 15.5382C22.8984 15.5804 23.0817 15.4772 23.0394 15.6366C22.5459 15.5147 22.1464 15.0318 21.7046 14.7833C21.2628 14.5348 20.5296 14.23 20.0549 14.1503L22.1041 15.4491C21.4602 15.3741 20.8398 15.1303 20.1912 15.0787C20.0878 15.0693 19.7588 15.0037 19.7729 15.1678L21.9161 15.8195L19.1196 15.9133C19.0585 15.707 19.2888 15.571 19.2982 15.4069C19.3076 15.2194 19.1478 15.0365 19.2277 14.7692C19.2935 14.5536 19.5802 14.5536 19.5943 14.4551C19.6084 14.3566 19.5003 14.2254 19.5379 14.0472C19.6272 13.583 20.0267 13.6111 20.1066 13.4939C20.1771 13.3861 20.1207 13.1845 20.2006 13.0251C20.21 13.0063 20.5014 12.7062 20.5249 12.6969C20.6471 12.6265 20.8116 12.7766 20.9009 12.7062C20.9902 12.6359 20.9902 12.3827 21.1782 12.2327C21.4743 11.9983 21.6905 12.2186 21.8315 12.1436C21.949 12.0826 21.9631 11.8857 22.09 11.8154C22.4472 11.6138 22.7386 11.8576 22.983 11.8154C23.0112 11.8154 23.2039 11.4309 23.4154 11.6232L23.406 11.6278Z" fill="#E8EAEE"/>
</g>
<defs>
<clipPath id="clip0_402_18109">
<rect width="47" height="32" fill="white"/>
</clipPath>
</defs>
</svg>
