<svg width="48" height="32" viewBox="0 0 48 32" fill="none" xmlns="http://www.w3.org/2000/svg">
<g clip-path="url(#clip0_402_18119)">
<path d="M15.9984 21.3765H47.9952C47.9952 24.9144 47.9952 28.462 47.9952 31.9999H0L15.9984 21.3765Z" fill="#00793D"/>
<path d="M47.8704 0L48 0.129613C48 3.62436 47.9952 7.12871 48 10.6283H47.8704C37.3344 10.6283 26.7936 10.6283 16.2576 10.6283H16.0032C10.68 7.06631 5.2416 3.67237 0 0H47.8704Z" fill="black"/>
<path d="M15.9984 10.6235C16.0464 10.6571 16.1232 10.7915 16.2528 10.8779C18.768 12.5629 21.3072 14.2238 23.8032 15.9376L23.592 16.2352C21.1872 17.9154 18.6336 19.4083 16.2528 21.1173C16.1472 21.1941 16.0368 21.2325 15.9984 21.3717L0 32V0C5.2416 3.67237 10.68 7.06631 15.9984 10.6235ZM7.6896 14.8383C7.6272 14.7951 7.488 13.9982 7.4208 13.8254C7.1328 13.8638 7.0848 14.7951 7.032 14.8431C6.8784 14.9823 6.2352 14.6367 6.0144 14.6559C6.4896 15.4767 6.5568 15.8512 5.76 16.4512C5.9328 16.7489 6.4464 16.5569 6.6 16.7633C6.7536 16.9697 6.6048 17.6322 6.6576 17.925L7.3584 17.1617L8.0592 17.925C8.1072 17.637 7.9632 16.9745 8.1168 16.7633C8.2704 16.5521 8.784 16.7489 8.9568 16.4512C8.1408 15.832 8.3136 15.6064 8.5728 14.7231C8.3472 14.6751 7.848 14.9535 7.6896 14.8431V14.8383Z" fill="#CD1227"/>
<path d="M47.8696 10.6235L47.9992 21.1222C47.9992 21.2086 47.9992 21.295 47.9992 21.3766H16.252V21.1222C18.6328 19.4084 21.1864 17.9155 23.5912 16.2401L23.8024 15.9425C21.3016 14.2287 18.7672 12.5677 16.252 10.8828V10.6283C26.788 10.6283 37.3288 10.6283 47.8648 10.6283L47.8696 10.6235Z" fill="#FEFEFE"/>
<path d="M47.9948 21.1222L47.8652 10.6235H47.9948C47.9996 14.1183 47.9948 17.6226 47.9948 21.1222Z" fill="#A8C2B5"/>
<path d="M16.2524 21.3765H15.998C16.0364 21.2373 16.1516 21.1941 16.2524 21.1221V21.3765Z" fill="#A8C2B5"/>
<path d="M16.2524 10.6235V10.878C16.118 10.7916 16.046 10.6571 15.998 10.6235H16.2524Z" fill="#A8C2B5"/>
<path d="M7.68961 14.8385C7.84801 14.9537 8.34721 14.6753 8.57281 14.7185C8.31361 15.597 8.14081 15.8226 8.95681 16.4467C8.78401 16.7443 8.27041 16.5523 8.11681 16.7587C7.96321 16.9651 8.11201 17.6276 8.05921 17.9204L7.35841 17.1571L6.65761 17.9204C6.60961 17.6324 6.75361 16.9699 6.60001 16.7587C6.44641 16.5475 5.93281 16.7443 5.76001 16.4467C6.55681 15.8466 6.48961 15.4722 6.01441 14.6513C6.23041 14.6321 6.87361 14.9777 7.03201 14.8385C7.08481 14.7905 7.13281 13.8544 7.42081 13.8208C7.48801 13.9936 7.62721 14.7905 7.68961 14.8337V14.8385Z" fill="#FEFEFE"/>
</g>
<defs>
<clipPath id="clip0_402_18119">
<rect width="48" height="32" fill="white"/>
</clipPath>
</defs>
</svg>
